<?xml version="1.0" encoding="UTF-8" standalone="no"?>
<!-- Created with Inkscape (http://www.inkscape.org/) -->

<svg
   xmlns:dc="http://purl.org/dc/elements/1.1/"
   xmlns:cc="http://creativecommons.org/ns#"
   xmlns:rdf="http://www.w3.org/1999/02/22-rdf-syntax-ns#"
   xmlns:svg="http://www.w3.org/2000/svg"
   xmlns="http://www.w3.org/2000/svg"
   xmlns:sodipodi="http://sodipodi.sourceforge.net/DTD/sodipodi-0.dtd"
   xmlns:inkscape="http://www.inkscape.org/namespaces/inkscape"
   width="118.14182mm"
   height="50.271309mm"
   viewBox="0 0 118.14182 50.271309"
   version="1.1"
   id="svg25630"
   inkscape:version="0.92.0 r15299"
   sodipodi:docname="ampm.svg">
  <defs
     id="defs25624">
    <linearGradient
       id="linearGradient25320"
       spreadMethod="pad"
       gradientTransform="matrix(227.12466,-5.5645542,0,-227.12466,201.35195,413.87449)"
       gradientUnits="userSpaceOnUse"
       y2="0"
       x2="1"
       y1="0"
       x1="0">
      <stop
         id="stop25306"
         offset="0"
         style="stop-opacity:1;stop-color:#f68712" />
      <stop
         id="stop25308"
         offset="0.1"
         style="stop-opacity:1;stop-color:#f68712" />
      <stop
         id="stop25310"
         offset="0.41097412"
         style="stop-opacity:1;stop-color:#fbbc09" />
      <stop
         id="stop25312"
         offset="0.521967"
         style="stop-opacity:1;stop-color:#fbbc09" />
      <stop
         id="stop25314"
         offset="0.62140362"
         style="stop-opacity:1;stop-color:#fbbc09" />
      <stop
         id="stop25316"
         offset="0.9"
         style="stop-opacity:1;stop-color:#f68712" />
      <stop
         id="stop25318"
         offset="1"
         style="stop-opacity:1;stop-color:#f68712" />
    </linearGradient>
    <linearGradient
       id="linearGradient25290"
       spreadMethod="pad"
       gradientTransform="matrix(292.25318,-7.1602026,0,-292.25318,170.09788,416.77556)"
       gradientUnits="userSpaceOnUse"
       y2="0"
       x2="1"
       y1="0"
       x1="0">
      <stop
         id="stop25276"
         offset="0"
         style="stop-opacity:1;stop-color:#f68712" />
      <stop
         id="stop25278"
         offset="0.1"
         style="stop-opacity:1;stop-color:#f68712" />
      <stop
         id="stop25280"
         offset="0.41097412"
         style="stop-opacity:1;stop-color:#fbbc09" />
      <stop
         id="stop25282"
         offset="0.521967"
         style="stop-opacity:1;stop-color:#fbbc09" />
      <stop
         id="stop25284"
         offset="0.62140362"
         style="stop-opacity:1;stop-color:#fbbc09" />
      <stop
         id="stop25286"
         offset="0.9"
         style="stop-opacity:1;stop-color:#f68712" />
      <stop
         id="stop25288"
         offset="1"
         style="stop-opacity:1;stop-color:#f68712" />
    </linearGradient>
    <clipPath
       id="clipPath25258"
       clipPathUnits="userSpaceOnUse">
      <path
         inkscape:connector-curvature="0"
         id="path25256"
         d="M 131.31,256.5 H 489.33 V 449.28 H 131.31 Z" />
    </clipPath>
    <clipPath
       id="clipPath25226"
       clipPathUnits="userSpaceOnUse">
      <path
         inkscape:connector-curvature="0"
         id="path25224"
         d="m 294.408,396.452 c -3.149,-0.356 -6.774,-1.48 -9.852,-2.433 v 0 L 272.88,382.504 c -0.005,0.521 0.03,0.504 0.049,0.489 v 0 c 0.017,-0.014 0.022,-0.029 -0.027,0.405 v 0 c -0.752,6.579 -6.363,9.877 -14.569,8.941 v 0 c -3.926,-0.453 -7.32,-1.64 -9.951,-2.548 v 0 l -11.392,-11.039 1.963,9.868 -21.573,-2.457 -9.215,-51.032 21.576,2.464 6.332,35.351 c 2.28,1.976 5.605,3.763 8.189,4.065 v 0 c 2.581,0.291 5.204,-0.723 5.569,-3.912 v 0 c 0.19,-1.699 -0.289,-4.475 -0.646,-6.335 v 0 l -5.055,-27.53 21.797,2.485 6.437,35.366 c 3.308,2.996 6.4,3.853 8.198,4.052 v 0 c 2.574,0.3 5.327,-0.801 5.653,-3.697 v 0 c 0.056,-0.492 0.186,-1.69 -0.668,-6.124 v 0 l -5.127,-27.95 21.761,2.313 6.245,34.305 c 1.809,11.401 -4.294,15.049 -4.294,15.049 v 0 c -1.472,0.734 -3.769,1.569 -7.156,1.569 v 0 c -0.795,0 -1.65,-0.046 -2.568,-0.15 m 159.251,-0.532 c -3.151,-0.366 -6.778,-1.484 -9.856,-2.442 v 0 l -11.175,-11.146 c -0.091,0.06 -0.164,0.038 -0.222,0.018 v 0 c -0.119,-0.044 -0.188,-0.086 -0.258,0.509 v 0 c -0.742,6.588 -6.356,9.885 -14.57,8.942 v 0 c -3.926,-0.448 -7.326,-1.639 -9.953,-2.542 v 0 l -11.289,-11.07 1.867,9.894 -21.577,-2.463 -9.217,-51.031 21.586,2.462 6.329,35.355 c 2.281,1.979 5.599,3.762 8.18,4.059 v 0 c 2.59,0.296 5.206,-0.718 5.576,-3.904 v 0 c 0.188,-1.692 -0.287,-4.475 -0.656,-6.334 v 0 l -5.052,-27.538 21.803,2.48 6.446,35.368 c 3.297,3.006 6.387,3.86 8.18,4.068 v 0 c 2.59,0.297 5.334,-0.811 5.66,-3.702 v 0 c 0.053,-0.494 0.191,-1.697 -0.663,-6.131 v 0 l -5.134,-27.947 24.137,2.703 c -0.349,1.099 -0.572,1.995 -0.736,3.42 v 0 c -0.319,2.848 0.051,5.672 0.419,7.567 v 0 l 2.937,16.283 0.012,0.034 1.25,6.912 c 0.456,1.969 1.03,4.961 0.752,7.347 v 0 c -0.268,2.4 -1.645,5.477 -5.058,7.408 v 0 c -1.47,0.734 -3.773,1.569 -7.166,1.569 v 0 c -0.79,0 -1.64,-0.046 -2.552,-0.148 M 186.425,385.151 c -28.66,-3.263 -38.88,-26.668 -37.308,-40.497 v 0 c 0.602,-5.296 2.862,-9.877 6.293,-12.474 v 0 c 4.464,-3.504 9.884,-3.09 12.634,-2.782 v 0 c 2.404,0.273 4.777,0.862 6.555,1.573 v 0 l 10.183,11.46 c -0.062,-1.454 -0.133,-2.897 0.1,-4.93 v 0 c 0.214,-1.841 0.767,-3.624 1.363,-4.789 v 0 l 19.944,2.267 c -0.35,1.099 -0.573,1.996 -0.738,3.418 v 0 c -0.32,2.847 0.051,5.67 0.419,7.567 v 0 l 6.548,36.284 c -3.383,1.153 -5.91,1.897 -10.516,2.607 v 0 c -2.813,0.415 -5.854,0.661 -8.992,0.661 v 0 c -2.131,0 -4.306,-0.114 -6.485,-0.365 M 170.88,350.236 c -0.605,5.129 2.079,20.127 15.152,21.574 v 0 c 1.465,0.16 2.842,0.116 3.91,-0.16 v 0 l -4.232,-22.325 c -0.141,-0.703 -0.23,-1.884 -0.296,-2.29 v 0 c -1.036,-0.898 -2.479,-2.231 -6.091,-2.627 v 0 c -0.48,-0.054 -0.969,-0.084 -1.46,-0.084 v 0 c -3.203,0 -6.444,1.293 -6.983,5.912 m 179.416,34.209 c -3.151,-0.362 -4.763,-1.148 -6.267,-1.926 v 0 l -10.343,-12.182 2.022,11.237 -21.356,-2.436 -8.359,-45.897 -3.123,-17.084 c -0.331,-1.89 -1.225,-6.913 -2.635,-9.382 v 0 l 19.333,2.189 v 10e-4 c 1.807,0.206 2.977,0.339 2.977,0.339 v 0 l 3.799,20.61 c 3.565,-0.299 6.502,-0.162 9.192,0.145 v 0 c 28.782,3.274 34.353,28.243 33.137,38.911 v 0 c -1.144,10.061 -7.523,15.61 -16.027,15.611 v 0 c -0.768,0 -1.551,-0.045 -2.35,-0.136 m -21.603,-41.235 4.391,22.81 c 2.31,2.038 4.676,2.671 6.095,2.827 v 0 c 2.299,0.254 4.28,-0.48 5.543,-1.751 v 0 c 1.018,-1.017 1.537,-2.652 1.729,-4.332 v 0 c 0.459,-3.809 -1.234,-18.5 -12.954,-19.778 v 0 c -0.648,-0.073 -1.249,-0.101 -1.796,-0.101 v 0 c -1.392,0 -2.431,0.188 -3.008,0.325" />
    </clipPath>
    <clipPath
       id="clipPath25234"
       clipPathUnits="userSpaceOnUse">
      <path
         inkscape:connector-curvature="0"
         id="path25232"
         d="M 147.181,398.382 H 472.225 V 302.463 H 147.181 Z" />
    </clipPath>
    <clipPath
       id="clipPath25238"
       clipPathUnits="userSpaceOnUse">
      <path
         inkscape:connector-curvature="0"
         id="path25236"
         d="m 147.181,302.463 h 325.044 v 95.919 H 147.181 Z" />
    </clipPath>
    <linearGradient
       id="linearGradient25216"
       spreadMethod="pad"
       gradientTransform="matrix(-6.3639745,72.74056,72.74056,6.3639745,336.89783,309.98245)"
       gradientUnits="userSpaceOnUse"
       y2="0"
       x2="1"
       y1="0"
       x1="0">
      <stop
         id="stop25206"
         offset="0"
         style="stop-opacity:1;stop-color:#1f3f8d" />
      <stop
         id="stop25208"
         offset="0.23015"
         style="stop-opacity:1;stop-color:#1f3f8d" />
      <stop
         id="stop25210"
         offset="0.8853116"
         style="stop-opacity:1;stop-color:#992798" />
      <stop
         id="stop25212"
         offset="0.915318"
         style="stop-opacity:1;stop-color:#992798" />
      <stop
         id="stop25214"
         offset="1"
         style="stop-opacity:1;stop-color:#992798" />
    </linearGradient>
    <linearGradient
       id="linearGradient25190"
       spreadMethod="pad"
       gradientTransform="matrix(-4.6704048,53.38297,53.38297,4.6704048,419.81915,339.17508)"
       gradientUnits="userSpaceOnUse"
       y2="0"
       x2="1"
       y1="0"
       x1="0">
      <stop
         id="stop25180"
         offset="0"
         style="stop-opacity:1;stop-color:#1f3f8d" />
      <stop
         id="stop25182"
         offset="0.23015"
         style="stop-opacity:1;stop-color:#1f3f8d" />
      <stop
         id="stop25184"
         offset="0.8853116"
         style="stop-opacity:1;stop-color:#992798" />
      <stop
         id="stop25186"
         offset="0.915318"
         style="stop-opacity:1;stop-color:#992798" />
      <stop
         id="stop25188"
         offset="1"
         style="stop-opacity:1;stop-color:#992798" />
    </linearGradient>
    <linearGradient
       id="linearGradient25164"
       spreadMethod="pad"
       gradientTransform="matrix(-4.8638278,55.593802,55.593802,4.8638278,231.54707,334.94133)"
       gradientUnits="userSpaceOnUse"
       y2="0"
       x2="1"
       y1="0"
       x1="0">
      <stop
         id="stop25150"
         offset="0"
         style="stop-opacity:1;stop-color:#ef2c30" />
      <stop
         id="stop25152"
         offset="0.0036489"
         style="stop-opacity:1;stop-color:#ef2c30" />
      <stop
         id="stop25154"
         offset="0.680624"
         style="stop-opacity:1;stop-color:#f7960f" />
      <stop
         id="stop25156"
         offset="0.68063648"
         style="stop-opacity:1;stop-color:#f7960f" />
      <stop
         id="stop25158"
         offset="0.930265"
         style="stop-opacity:1;stop-color:#f9ab0c" />
      <stop
         id="stop25160"
         offset="0.93026849"
         style="stop-opacity:1;stop-color:#f9ab0c" />
      <stop
         id="stop25162"
         offset="1"
         style="stop-opacity:1;stop-color:#f9ab0c" />
    </linearGradient>
    <clipPath
       id="clipPath25128"
       clipPathUnits="userSpaceOnUse">
      <path
         inkscape:connector-curvature="0"
         id="path25126"
         d="M 131.31,256.5 H 489.33 V 449.28 H 131.31 Z" />
    </clipPath>
  </defs>
  <sodipodi:namedview
     id="base"
     pagecolor="#ffffff"
     bordercolor="#666666"
     borderopacity="1.0"
     inkscape:pageopacity="0.0"
     inkscape:pageshadow="2"
     inkscape:zoom="1.8114438"
     inkscape:cx="221.37038"
     inkscape:cy="68.290123"
     inkscape:document-units="mm"
     inkscape:current-layer="layer1"
     showgrid="false"
     fit-margin-top="0"
     fit-margin-left="0"
     fit-margin-right="0"
     fit-margin-bottom="0"
     inkscape:window-width="1280"
     inkscape:window-height="744"
     inkscape:window-x="-4"
     inkscape:window-y="-4"
     inkscape:window-maximized="1" />
  <metadata
     id="metadata25627">
    <rdf:RDF>
      <cc:Work
         rdf:about="">
        <dc:format>image/svg+xml</dc:format>
        <dc:type
           rdf:resource="http://purl.org/dc/dcmitype/StillImage" />
        <dc:title></dc:title>
      </cc:Work>
    </rdf:RDF>
  </metadata>
  <g
     inkscape:label="Layer 1"
     inkscape:groupmode="layer"
     id="layer1"
     transform="translate(87.297104,-81.100684)">
    <g
       id="g25134"
       transform="matrix(0.35277777,0,0,-0.35277777,30.34472,114.27097)">
      <path
         d="m 0,0 c 0,9.5 -9.104,6.903 -9.08,7.028 l 2.871,15.926 0.016,0.033 1.293,7.167 c 0.813,3.534 1.08,6.38 0.813,8.677 -0.485,4.391 -3.174,8.369 -7.193,10.642 l -0.191,0.105 c -2.678,1.339 -5.727,2.017 -9.065,2.017 -0.982,0 -2.004,-0.059 -3.05,-0.177 -3.609,-0.416 -7.501,-1.628 -10.63,-2.6 l -1,-0.313 -7.447,-7.428 c -2.72,4.063 -7.597,6.412 -13.842,6.412 -1.018,0 -2.083,-0.064 -3.15,-0.187 -4.271,-0.483 -7.938,-1.742 -10.618,-2.661 l -4.974,-5.029 0.76,4.493 -29.27,-3.342 -2.207,-12.206 c -3.291,7.207 -9.855,11.553 -18.144,11.553 -0.926,0 -1.881,-0.056 -2.836,-0.164 -3.742,-0.43 -5.547,-1.316 -7.359,-2.176 l -3.663,-3.938 0.531,3.71 -26.315,-3 c 0.217,8.768 -3.898,13.749 -6.69,15.418 l -0.139,0.083 -0.145,0.074 c -2.685,1.339 -5.729,2.014 -9.053,2.014 -0.986,0 -2.013,-0.059 -3.047,-0.175 -3.545,-0.404 -7.473,-1.617 -10.636,-2.598 l -0.993,-0.308 -7.493,-7.39 c -2.731,4.036 -7.597,6.367 -13.816,6.367 -1.016,0 -2.074,-0.065 -3.148,-0.185 -4.318,-0.498 -8.017,-1.773 -10.715,-2.708 l -4.805,-4.861 0.745,4.374 -29.32,-3.339 -0.636,-3.527 c -3.406,1.139 -6.116,1.87 -10.591,2.56 -3.174,0.466 -6.407,0.704 -9.611,0.704 -2.368,0 -4.712,-0.132 -6.971,-0.391 -31.111,-3.542 -42.892,-29.072 -41.058,-45.215 0.745,-6.514 3.643,-12.122 7.895,-15.34 3.287,-2.581 7.361,-3.887 12.113,-3.887 1.445,0 2.698,0.12 3.633,0.223 2.728,0.313 5.447,0.968 7.654,1.847 l 0.936,0.377 4.577,5.149 c 0.228,-0.63 0.485,-1.228 0.761,-1.769 l 1.345,-2.622 19.172,2.176 -0.014,-0.075 100.213,11.252 -1.366,-7.495 -3.128,-17.114 c -2.231,-10.639 -4.984,-15.219 -4.984,-15.219 l 32.47,3.754 3.699,20.063 c 0.133,-0.001 0.267,-0.001 0.399,-0.001 1.878,0 3.763,0.111 5.761,0.335 14.332,1.632 22.986,8.196 28.117,14.613 L -114.553,-19.019 -7.32,-6.857 C -3.462,-6.507 0,-3.667 0,0"
         style="fill:#ffffff;fill-opacity:1;fill-rule:nonzero;stroke:none"
         id="path25136"
         inkscape:connector-curvature="0" />
    </g>
    <g
       id="g25138"
       transform="matrix(0.35277777,0,0,-0.35277777,-137.84395,237.29527)">
      <g
         id="g25140">
        <g
           id="g25146">
          <g
             id="g25148">
            <path
               d="m 294.408,396.452 c -3.149,-0.356 -6.774,-1.48 -9.852,-2.433 v 0 L 272.88,382.504 c -0.005,0.521 0.03,0.504 0.049,0.489 v 0 c 0.017,-0.014 0.022,-0.029 -0.027,0.405 v 0 c -0.752,6.579 -6.363,9.877 -14.569,8.941 v 0 c -3.926,-0.453 -7.32,-1.64 -9.951,-2.548 v 0 l -11.392,-11.039 1.963,9.868 -21.573,-2.457 -9.215,-51.032 21.576,2.464 6.332,35.351 c 2.28,1.976 5.605,3.763 8.189,4.065 v 0 c 2.581,0.291 5.204,-0.723 5.569,-3.912 v 0 c 0.19,-1.699 -0.289,-4.475 -0.646,-6.335 v 0 l -5.055,-27.53 21.797,2.485 6.437,35.366 c 3.308,2.996 6.4,3.853 8.198,4.052 v 0 c 2.574,0.3 5.327,-0.801 5.653,-3.697 v 0 c 0.056,-0.492 0.186,-1.69 -0.668,-6.124 v 0 l -5.127,-27.95 21.761,2.313 6.245,34.305 c 1.809,11.401 -4.294,15.049 -4.294,15.049 v 0 c -1.472,0.734 -3.769,1.569 -7.156,1.569 v 0 c -0.795,0 -1.65,-0.046 -2.568,-0.15 M 186.425,385.151 c -28.66,-3.263 -38.88,-26.668 -37.308,-40.497 v 0 c 0.602,-5.296 2.862,-9.877 6.293,-12.474 v 0 c 4.464,-3.504 9.884,-3.09 12.634,-2.782 v 0 c 2.404,0.273 4.777,0.862 6.555,1.573 v 0 l 10.183,11.46 c -0.062,-1.454 -0.133,-2.897 0.1,-4.93 v 0 c 0.214,-1.841 0.767,-3.624 1.363,-4.789 v 0 l 19.944,2.267 c -0.35,1.099 -0.573,1.996 -0.738,3.418 v 0 c -0.32,2.847 0.051,5.67 0.419,7.567 v 0 l 6.548,36.284 c -3.383,1.153 -5.91,1.897 -10.516,2.607 v 0 c -2.813,0.415 -5.854,0.661 -8.992,0.661 v 0 c -2.131,0 -4.306,-0.114 -6.485,-0.365 M 170.88,350.236 c -0.605,5.129 2.079,20.127 15.152,21.574 v 0 c 1.465,0.16 2.842,0.116 3.91,-0.16 v 0 l -4.232,-22.325 c -0.141,-0.703 -0.23,-1.884 -0.296,-2.29 v 0 c -1.036,-0.898 -2.479,-2.231 -6.091,-2.627 v 0 c -0.48,-0.054 -0.969,-0.084 -1.46,-0.084 v 0 c -3.203,0 -6.444,1.293 -6.983,5.912"
               style="fill:url(#linearGradient25164);stroke:none"
               id="path25166"
               inkscape:connector-curvature="0" />
          </g>
        </g>
      </g>
    </g>
    <g
       id="g25168"
       transform="matrix(0.35277777,0,0,-0.35277777,-137.84395,237.29527)">
      <g
         id="g25170">
        <g
           id="g25176">
          <g
             id="g25178">
            <path
               d="m 453.659,395.92 c -3.151,-0.366 -6.778,-1.484 -9.856,-2.442 v 0 l -11.175,-11.146 c -0.091,0.06 -0.164,0.038 -0.222,0.017 v 0 c -0.119,-0.043 -0.188,-0.085 -0.258,0.51 v 0 c -0.742,6.588 -6.356,9.885 -14.57,8.942 v 0 c -3.926,-0.448 -7.326,-1.639 -9.953,-2.542 v 0 l -11.289,-11.07 1.867,9.894 -21.577,-2.463 -9.217,-51.031 21.586,2.462 6.329,35.355 c 2.281,1.979 5.599,3.762 8.18,4.059 v 0 c 2.59,0.296 5.206,-0.718 5.576,-3.904 v 0 c 0.188,-1.692 -0.287,-4.475 -0.656,-6.334 v 0 l -5.052,-27.538 21.803,2.48 6.446,35.368 c 3.297,3.006 6.387,3.86 8.18,4.068 v 0 c 2.59,0.297 5.334,-0.811 5.66,-3.702 v 0 c 0.053,-0.494 0.191,-1.697 -0.663,-6.131 v 0 l -5.134,-27.947 24.137,2.703 c -0.349,1.099 -0.572,1.995 -0.736,3.42 v 0 c -0.319,2.848 0.051,5.672 0.419,7.567 v 0 l 2.937,16.283 0.012,0.034 1.25,6.912 c 0.456,1.969 1.03,4.961 0.752,7.347 v 0 c -0.268,2.4 -1.645,5.477 -5.058,7.408 v 0 c -1.47,0.734 -3.773,1.569 -7.166,1.569 v 0 c -0.79,0 -1.64,-0.046 -2.552,-0.148"
               style="fill:url(#linearGradient25190);stroke:none"
               id="path25192"
               inkscape:connector-curvature="0" />
          </g>
        </g>
      </g>
    </g>
    <g
       id="g25194"
       transform="matrix(0.35277777,0,0,-0.35277777,-137.84395,237.29527)">
      <g
         id="g25196">
        <g
           id="g25202">
          <g
             id="g25204">
            <path
               d="m 350.296,384.445 c -3.151,-0.362 -4.763,-1.148 -6.267,-1.926 v 0 l -10.343,-12.182 2.022,11.237 -21.356,-2.436 -8.359,-45.897 -3.123,-17.084 c -0.331,-1.89 -1.225,-6.913 -2.635,-9.382 v 0 0 l 19.333,2.189 v 10e-4 c 1.807,0.206 2.977,0.339 2.977,0.339 v 0 l 3.799,20.61 c 3.565,-0.299 6.502,-0.162 9.192,0.145 v 0 c 28.782,3.274 34.353,28.243 33.137,38.911 v 0 c -1.144,10.061 -7.523,15.61 -16.027,15.611 v 0 c -0.768,0 -1.551,-0.045 -2.35,-0.136 m -21.603,-41.235 4.391,22.81 c 2.31,2.038 4.676,2.671 6.095,2.827 v 0 c 2.299,0.254 4.28,-0.48 5.543,-1.751 v 0 c 1.018,-1.017 1.537,-2.652 1.729,-4.332 v 0 c 0.459,-3.809 -1.234,-18.5 -12.954,-19.778 v 0 c -0.648,-0.073 -1.249,-0.101 -1.796,-0.101 v 0 c -1.392,0 -2.431,0.188 -3.008,0.325"
               style="fill:url(#linearGradient25216);stroke:none"
               id="path25218"
               inkscape:connector-curvature="0" />
          </g>
        </g>
      </g>
    </g>
    <g
       id="g25220"
       transform="matrix(0.35277777,0,0,-0.35277777,-137.84395,237.29527)">
      <g
         id="g25222"
         clip-path="url(#clipPath25226)">
        <g
           id="g25228">
          <g
             id="g25230" />
          <g
             id="g25250">
            <g
               clip-path="url(#clipPath25234)"
               id="g25248"
               style="opacity:0.19999701">
              <g
                 id="g25246">
                <g
                   clip-path="url(#clipPath25238)"
                   id="g25244">
                  <g
                     transform="translate(468.6518,378.7738)"
                     id="g25242">
                    <path
                       d="M 0,0 -1.248,-6.909 -1.26,-6.945 -4.198,-23.229 c -0.368,-1.894 -0.74,-4.718 -0.418,-7.567 0.163,-1.422 0.386,-2.321 0.736,-3.419 l -19.947,-2.241 0.004,0.002 c -2.498,-0.28 -4.193,-0.464 -4.193,-0.464 l 5.133,27.949 c 0.853,4.432 0.713,5.635 0.661,6.126 -0.326,2.893 -3.07,4 -5.658,3.707 -1.797,-0.211 -4.882,-1.064 -8.182,-4.07 l -6.446,-35.365 -21.802,-2.483 5.052,27.539 c 0.37,1.855 0.842,4.642 0.655,6.333 -0.369,3.186 -2.986,4.198 -5.575,3.906 -2.584,-0.3 -5.899,-2.081 -8.179,-4.06 l -6.329,-35.359 -21.586,-2.459 9.217,51.032 21.578,2.461 -1.869,-9.894 11.29,11.072 c 2.627,0.901 6.026,2.095 9.952,2.54 8.211,0.941 13.827,-2.351 14.571,-8.943 0.105,-0.892 0.208,-0.344 0.478,-0.527 l 11.176,11.15 c 3.078,0.955 6.705,2.072 9.856,2.438 4.826,0.543 7.907,-0.513 9.718,-1.42 C -0.893,12.823 0.488,9.748 0.753,7.348 1.03,4.963 0.458,1.971 0,0 m -132.146,-49.685 c -2.691,-0.306 -5.627,-0.442 -9.192,-0.143 l -3.799,-20.611 c 0,0 -1.168,-0.132 -2.977,-0.338 l -19.333,-2.193 c 1.41,2.47 2.302,7.492 2.634,9.382 l 3.124,17.085 8.359,45.898 21.355,2.434 -2.021,-11.235 10.342,12.181 c 1.503,0.78 3.118,1.565 6.266,1.924 9.664,1.101 17.132,-4.503 18.379,-15.472 1.216,-10.67 -4.356,-35.639 -33.137,-38.912 M 3.483,7.651 c -0.208,1.877 -1.249,6.56 -6.433,9.496 l -0.127,0.066 c -2.465,1.233 -5.286,1.856 -8.385,1.856 -0.925,0 -1.893,-0.053 -2.879,-0.166 -3.464,-0.399 -7.287,-1.586 -10.352,-2.543 l -0.648,-0.201 -8.604,-8.581 c -2.158,4.643 -7.012,7.386 -13.488,7.386 -0.96,0 -1.966,-0.06 -2.981,-0.177 -4.106,-0.463 -7.684,-1.693 -10.296,-2.59 l -0.827,-0.282 -5.485,-5.383 0.934,4.96 -27.311,-3.115 -3.11,-17.226 c -1.75,10.184 -8.727,16.436 -18.525,16.436 -0.87,0 -1.768,-0.055 -2.666,-0.156 -3.49,-0.401 -5.404,-1.274 -7.218,-2.213 l -0.481,-0.249 -4.083,-4.811 0.866,4.821 -27.052,-3.084 -8.725,-47.907 -3.127,-17.1 c -0.745,-4.249 -1.521,-7.108 -2.313,-8.495 l -2.688,-4.704 29.715,3.369 3.728,20.23 c 0.559,-0.022 1.11,-0.032 1.653,-0.032 h 0.001 c 1.82,0 3.651,0.109 5.591,0.328 16.826,1.914 25.523,10.84 29.854,17.989 0.448,0.74 0.867,1.486 1.258,2.237 l -2.913,-16.114 27.292,3.112 6.511,36.368 c 1.935,1.482 4.331,2.627 5.964,2.815 0.178,0.021 0.355,0.032 0.532,0.032 1.825,0 1.938,-0.989 1.998,-1.507 0.054,-0.464 0.094,-1.929 -0.625,-5.536 l -5.722,-31.184 27.511,3.132 6.642,36.419 c 2.562,2.102 4.805,2.652 5.959,2.786 0.164,0.02 0.332,0.029 0.494,0.029 0.738,0 1.996,-0.17 2.125,-1.309 0.094,-0.867 -0.118,-2.65 -0.635,-5.325 l -5.798,-31.582 7.869,0.867 23.271,2.614 -1.017,3.194 c -0.293,0.925 -0.481,1.662 -0.622,2.892 -0.223,1.961 -0.089,4.29 0.392,6.771 l 2.896,16.05 0.015,0.037 1.274,7.074 c 0.78,3.381 1.039,6.068 0.791,8.206 M -127.715,-30.26 c -1.773,-2.23 -3.985,-3.46 -6.775,-3.765 -0.415,-0.045 -0.829,-0.074 -1.235,-0.082 l 3.636,18.88 c 1.683,1.234 3.24,1.527 3.89,1.596 0.203,0.025 0.4,0.036 0.595,0.036 1.088,0 2.071,-0.359 2.701,-0.992 0.444,-0.449 0.801,-1.46 0.943,-2.722 0.22,-1.831 -0.277,-8.572 -3.755,-12.951 m 4.757,17.615 c -1.266,1.269 -3.248,2.002 -5.545,1.748 -1.418,-0.155 -3.786,-0.788 -6.096,-2.826 l -4.391,-22.81 c 0.805,-0.192 2.504,-0.481 4.806,-0.224 11.72,1.276 13.413,15.969 12.953,19.778 -0.192,1.677 -0.712,3.315 -1.727,4.334 m -58.508,10.342 c -0.326,2.896 -3.08,3.997 -5.655,3.696 -1.8,-0.199 -4.89,-1.054 -8.196,-4.052 l -6.438,-35.367 -21.799,-2.483 5.054,27.532 c 0.36,1.856 0.84,4.634 0.649,6.331 -0.365,3.191 -2.988,4.206 -5.568,3.912 -2.586,-0.296 -5.91,-2.089 -8.19,-4.064 l -6.332,-35.35 -21.574,-2.464 9.212,51.033 21.571,2.456 -1.961,-9.866 11.39,11.036 c 2.633,0.909 6.027,2.098 9.954,2.549 8.204,0.936 13.817,-2.36 14.567,-8.941 0.107,-0.896 -0.027,0.117 -0.02,-0.896 l 11.676,11.516 c 3.077,0.955 6.702,2.078 9.852,2.435 4.833,0.548 7.908,-0.516 9.723,-1.421 0,0 6.103,-3.649 4.296,-15.047 l -6.247,-34.306 -21.762,-2.313 5.131,27.949 c 0.85,4.435 0.722,5.633 0.667,6.125 m -99.971,-44.729 c -0.597,1.163 -1.149,2.95 -1.365,4.79 -0.231,2.032 -0.162,3.476 -0.096,4.932 l -10.186,-11.463 c -1.777,-0.71 -4.151,-1.299 -6.555,-1.571 -2.749,-0.31 -8.17,-0.722 -12.634,2.781 -3.431,2.598 -5.691,7.179 -6.291,12.473 -1.572,13.829 8.646,37.235 37.306,40.499 5.385,0.618 10.755,0.4 15.478,-0.297 4.604,-0.71 7.133,-1.452 10.515,-2.607 l -6.546,-36.283 c -0.367,-1.898 -0.741,-4.72 -0.418,-7.569 0.161,-1.424 0.387,-2.32 0.736,-3.417 z m 90.806,7.534 27.467,2.919 6.624,36.39 c 2.077,13.084 -5.287,17.65 -5.602,17.837 l -0.089,0.056 -0.094,0.046 c -2.474,1.234 -5.293,1.858 -8.379,1.858 -0.928,0 -1.898,-0.058 -2.878,-0.168 -3.403,-0.385 -7.093,-1.529 -10.358,-2.541 l -0.639,-0.199 -8.645,-8.523 c -2.182,4.605 -7.023,7.323 -13.467,7.323 -0.957,0 -1.957,-0.059 -2.973,-0.175 -4.156,-0.478 -7.76,-1.723 -10.394,-2.632 l -0.716,-0.246 -5.505,-5.335 0.979,4.924 -27.341,-3.115 -0.751,-4.15 -0.987,0.339 c -3.655,1.243 -6.354,2.008 -10.999,2.722 -3.102,0.456 -6.262,0.689 -9.392,0.689 -2.308,0 -4.597,-0.129 -6.797,-0.381 -30.09,-3.425 -41.495,-28.005 -39.728,-43.541 0.693,-6.106 3.379,-11.34 7.323,-14.322 3.016,-2.369 6.776,-3.568 11.182,-3.568 1.37,0 2.567,0.117 3.461,0.217 2.561,0.292 5.208,0.926 7.266,1.749 l 0.603,0.241 6.181,6.957 c 0.31,-1.523 0.803,-3.003 1.396,-4.157 l 0.867,-1.693 20.153,2.292 -0.017,-0.077 27.284,3.114 6.514,36.362 c 1.939,1.485 4.339,2.633 5.971,2.822 0.177,0.019 0.351,0.029 0.524,0.029 1.831,0 1.945,-0.991 2.005,-1.517 0.109,-0.967 -0.098,-2.822 -0.621,-5.53 l -5.723,-31.179 27.51,3.136 6.628,36.417 c 2.58,2.107 4.818,2.64 5.99,2.771 0.167,0.019 0.335,0.029 0.504,0.029 0.728,0 1.97,-0.168 2.097,-1.303 0.116,-1.037 -0.282,-3.454 -0.637,-5.323 z m -94.034,9.626 c -0.087,-0.438 -0.154,-0.955 -0.207,-1.425 -0.769,-0.574 -1.796,-1.088 -3.792,-1.307 -0.397,-0.045 -0.787,-0.066 -1.156,-0.066 -3.382,0 -4.041,1.671 -4.252,3.484 -0.357,3.008 0.717,9.467 4.144,13.784 2.192,2.755 5.077,4.348 8.582,4.735 0.108,0.014 0.218,0.024 0.328,0.034 z m 3.015,21.937 c -13.074,-1.445 -15.757,-16.445 -15.153,-21.572 0.621,-5.326 4.835,-6.231 8.445,-5.828 3.608,0.397 5.055,1.73 6.088,2.627 0.068,0.407 0.156,1.584 0.299,2.29 l 4.229,22.324 c -1.066,0.277 -2.443,0.322 -3.908,0.159"
                       style="fill:#231f20;fill-opacity:1;fill-rule:nonzero;stroke:none"
                       id="path25240"
                       inkscape:connector-curvature="0" />
                  </g>
                </g>
              </g>
            </g>
          </g>
        </g>
      </g>
    </g>
    <g
       id="g25252"
       transform="matrix(0.35277777,0,0,-0.35277777,-137.84395,237.29527)">
      <g
         id="g25254"
         clip-path="url(#clipPath25258)">
        <g
           id="g25260"
           transform="translate(469.3698,350.1729)">
          <path
             d="M 0,0 H 0.952 C 1.133,0 1.318,0.004 1.505,0.018 1.672,0.03 1.834,0.063 1.974,0.138 2.111,0.19 2.23,0.275 2.31,0.396 2.388,0.516 2.438,0.688 2.438,0.902 2.438,1.096 2.397,1.252 2.319,1.367 2.251,1.483 2.156,1.563 2.033,1.623 1.907,1.699 1.781,1.73 1.626,1.743 1.481,1.769 1.341,1.769 1.183,1.769 H 0 Z M -0.78,2.462 H 1.26 C 1.912,2.462 2.409,2.335 2.736,2.091 3.04,1.838 3.208,1.429 3.208,0.871 3.208,0.375 3.057,0.004 2.777,-0.219 2.496,-0.448 2.153,-0.594 1.731,-0.632 L 3.329,-3.078 H 2.496 L 0.978,-0.696 H 0 v -2.382 h -0.78 z m -2.259,-2.757 c 0,-0.575 0.114,-1.106 0.316,-1.614 0.204,-0.479 0.498,-0.903 0.861,-1.269 0.381,-0.369 0.802,-0.655 1.281,-0.87 0.501,-0.205 1.03,-0.314 1.591,-0.314 0.558,0 1.088,0.109 1.582,0.314 0.479,0.215 0.914,0.501 1.282,0.87 0.371,0.38 0.647,0.804 0.865,1.3 0.21,0.509 0.321,1.043 0.321,1.634 C 5.06,0.33 4.949,0.863 4.739,1.358 4.521,1.857 4.245,2.284 3.874,2.654 3.506,3.014 3.071,3.3 2.592,3.509 2.098,3.708 1.568,3.817 1.01,3.817 0.449,3.817 -0.08,3.708 -0.581,3.495 -1.06,3.296 -1.481,3.003 -1.862,2.637 -2.225,2.276 -2.519,1.852 -2.723,1.342 -2.925,0.833 -3.039,0.298 -3.039,-0.295 m -0.778,0 c 0,0.687 0.138,1.314 0.384,1.911 0.248,0.583 0.607,1.081 1.05,1.524 0.435,0.421 0.952,0.761 1.527,1.003 0.584,0.249 1.201,0.365 1.866,0.365 0.652,0 1.261,-0.116 1.849,-0.365 C 3.452,3.901 3.965,3.573 4.399,3.148 4.838,2.723 5.178,2.21 5.436,1.645 5.691,1.056 5.831,0.425 5.831,-0.244 5.831,-0.93 5.691,-1.566 5.436,-2.148 5.178,-2.741 4.838,-3.244 4.399,-3.681 3.965,-4.112 3.452,-4.447 2.859,-4.689 2.271,-4.93 1.662,-5.058 1.01,-5.058 c -0.665,0 -1.282,0.128 -1.866,0.369 -0.575,0.242 -1.092,0.577 -1.527,1.008 -0.443,0.42 -0.802,0.922 -1.05,1.506 -0.246,0.573 -0.384,1.203 -0.384,1.88"
             style="fill:#1f3f8d;fill-opacity:1;fill-rule:nonzero;stroke:none"
             id="path25262"
             inkscape:connector-curvature="0" />
        </g>
      </g>
    </g>
    <g
       id="g25264"
       transform="matrix(0.35277777,0,0,-0.35277777,-137.84395,237.29527)">
      <g
         id="g25266">
        <g
           id="g25272">
          <g
             id="g25274">
            <path
               d="M 318.919,441.083 C 228.117,437.2 170.098,388.191 170.098,388.191 v 0 c 0,0 56.172,34.613 146.885,39.706 v 0 c 90.707,5.097 145.368,-24.549 145.368,-24.549 v 0 c 0,0 -47.916,37.989 -131.486,37.991 v 0 c -3.908,0 -7.884,-0.082 -11.946,-0.256"
               style="fill:url(#linearGradient25290);stroke:none"
               id="path25292"
               inkscape:connector-curvature="0" />
          </g>
        </g>
      </g>
    </g>
    <g
       id="g25294"
       transform="matrix(0.35277777,0,0,-0.35277777,-137.84395,237.29527)">
      <g
         id="g25296">
        <g
           id="g25302">
          <g
             id="g25304">
            <path
               d="m 337.526,424.939 c -7.166,0 -14.554,-0.207 -22.096,-0.665 v 0 c -49.745,-3.02 -91.785,-15.735 -114.078,-24.913 v 0 c 24.837,6.619 60.291,16.052 113.614,19.521 v 0 c 53.324,3.463 89.921,-1.699 113.511,-6.411 v 0 c -17.637,5.982 -50.947,12.468 -90.943,12.468 v 0 c -0.004,0 -0.003,0 -0.008,0"
               style="fill:url(#linearGradient25320);stroke:none"
               id="path25322"
               inkscape:connector-curvature="0" />
          </g>
        </g>
      </g>
    </g>
  </g>
</svg>
